<?xml version="1.0" encoding="UTF-8"?>
<!DOCTYPE svg PUBLIC "-//W3C//DTD SVG 1.1//EN" "http://www.w3.org/Graphics/SVG/1.1/DTD/svg11.dtd">
<!-- Creator: CorelDRAW 2020 (64 Bit) -->
<svg xmlns="http://www.w3.org/2000/svg" xml:space="preserve" width="210mm" height="297mm" version="1.1" style="shape-rendering:geometricPrecision; text-rendering:geometricPrecision; image-rendering:optimizeQuality; fill-rule:evenodd; clip-rule:evenodd"
viewBox="0 0 21000 29700"
 xmlns:xlink="http://www.w3.org/1999/xlink"
 xmlns:xodm="http://www.corel.com/coreldraw/odm/2003">
 <defs>
  <style type="text/css">
   <![CDATA[
    .fil1 {fill:none;fill-rule:nonzero}
    .fil0 {fill:#FEFEFE;fill-rule:nonzero}
   ]]>
  </style>
 </defs>
 <g id="Camada_x0020_1">
  <metadata id="CorelCorpID_0Corel-Layer"/>
  <polygon class="fil0" points="4266.66,7469.86 1263.98,11382.94 1338.52,11439.99 4341.07,7526.96 "/>
  <path class="fil0" d="M1714.53 9371.21c185.27,0 336.86,-63.33 448.66,-163.33 140.85,-126.71 217.79,-311.98 217.79,-503.18l0 -1189.3 255.23 0 0 -12.38 -785 0 0 12.38 248.65 0 0 1482.32c0,82.28 -82.8,359.93 -406.7,359.93 -323.71,0 -364.56,-307.93 -364.56,-307.93 25.47,35.56 66.9,59.16 114.21,59.16 78.17,0 140.84,-63.27 140.84,-140.86 0,-77.99 -62.67,-140.84 -140.84,-140.84 -77.59,0 -140.85,62.85 -140.85,140.84 0,0 0,5.46 0.58,14.21 2.88,72.3 39.62,388.98 411.99,388.98z"/>
  <path class="fil0" d="M4166.59 9944.87c-77.58,0 -140.85,65.79 -140.85,146.25 0,4.99 0,9.16 0.65,13.56 1.76,18.54 6.45,35.09 13.5,50.47 22.65,48.48 71.13,82.4 126.7,82.4 77.59,0 140.85,-65.26 140.85,-146.43 0,0 37.98,-495.02 -483.52,-556.47 -147.54,-17.2 -275.83,19.13 -385.4,81.81 -4.81,2.99 -10.09,6.16 -14.73,9.16 -11.33,6.8 -22.59,14.2 -33.74,22.12 -13.09,9.22 -25.48,18.55 -37.98,27.76 -36.73,28.93 -70.95,59.63 -103.64,93.37l-0.47 0.65c-10.68,11.15 -21.36,22.71 -32.1,34.5 -11.73,14.15 -23.65,28.29 -34.92,42.43 -70.36,90.38 -126.12,193.61 -162.68,306.88 -33.16,100.82 -50.94,208.34 -50.94,320.9 0,112.5 17.78,220.26 50.94,321.02 36.56,113.15 92.32,216.5 162.68,306.88 11.27,14.14 23.19,28.17 34.92,42.31 10.74,11.74 21.42,23.36 32.1,34.51l0.47 0c32.69,34.51 66.91,65.2 103.64,94.01 12.5,9.34 24.89,18.49 37.98,27.7 11.15,7.99 22.41,15.38 33.74,22.13 4.64,3.17 9.92,6.16 14.73,9.21 109.57,62.8 237.86,99.13 385.4,81.81 521.5,-61.5 483.52,-556.53 483.52,-556.53 0,-81.16 -63.26,-146.25 -140.85,-146.25 -55.57,0 -104.05,33.75 -126.7,82.4 -7.05,15.38 -11.74,31.93 -13.5,50.3 -0.65,4.4 -0.65,8.74 -0.65,13.55 0,80.64 63.27,146.43 140.85,146.43 49.71,0 94.14,-27.12 119.02,-68.2 0,0 -39.03,528.13 -609.64,456.12 -285.34,-36.15 -392.62,-300.07 -428.01,-554.65l0 -725.55c35.39,-254.59 142.67,-518.33 428.01,-554.65 570.61,-71.89 609.64,456.29 609.64,456.29 -24.88,-41.26 -69.31,-68.2 -119.02,-68.2z"/>
  <polygon class="fil0" points="10616.61,8404.22 10533.86,8594.89 10123.63,9548.79 10286.79,9548.79 10616.61,8785.8 10944.67,9548.79 11108.41,9548.79 10697.6,8594.89 "/>
  <polygon class="fil0" points="13123.73,8404.22 13041.56,8594.89 12630.75,9548.79 12794.49,9548.79 13123.73,8785.8 13452.37,9548.79 13615.52,9548.79 13205.3,8594.89 "/>
  <polygon class="fil0" points="16052.21,8393.77 15968.88,8586.33 15554.55,9548.79 15720.05,9548.79 16052.21,8778.88 16383.21,9548.79 16548.71,9548.79 16133.79,8586.33 "/>
  <polygon class="fil0" points="15502.9,8393.77 15171.32,9163.75 14839.15,8393.77 14674.24,8393.77 15088.57,9356.24 15171.32,9548.79 15253.48,9356.24 15667.81,8393.77 "/>
  <polygon class="fil0" points="16924.3,8393.3 16774.65,8393.3 16774.65,9548.79 17427.84,9548.79 17427.84,9399.2 16924.3,9399.2 "/>
  <polygon class="fil0" points="8702.12,9548.79 8850.65,9548.79 8850.65,8393.78 8702.12,8393.78 "/>
  <polygon class="fil0" points="18328.1,8896.95 17796.99,8896.95 17796.99,8393.77 17648.5,8393.77 17648.5,9548.79 17796.99,9548.79 17796.99,9045.49 18328.1,9045.49 18328.1,9548.79 18476.58,9548.79 18476.58,8393.77 18328.1,8393.77 "/>
  <path class="fil0" d="M19244.8 9406.01c-238.86,0 -433.7,-194.67 -433.7,-433.76 0,-239.21 194.84,-433.81 433.7,-433.81 239.44,0 433.7,194.6 433.7,433.81 0,239.09 -194.26,433.76 -433.7,433.76zm0 -1012.24c-318.67,0 -578.07,259.46 -578.07,578.48 0,318.97 259.4,578.36 578.07,578.36 319.25,0 578.65,-259.39 578.65,-578.36 0,-319.02 -259.4,-578.48 -578.65,-578.48z"/>
  <path class="fil0" d="M9666.46 9407.47c-240.61,0 -436.63,-195.95 -436.63,-436.86 0,-240.74 196.02,-436.69 436.63,-436.69 86.27,0 169.02,25 238.86,72.12l81.58 -120.95c-94.49,-63.27 -205.41,-96.72 -320.44,-96.72 -321.01,0 -582.18,261.22 -582.18,582.24 0,321.19 261.17,582.41 582.18,582.41 119.72,0 234.16,-36.15 331.59,-104.41l-83.93 -119.13c-72.77,51.06 -158.45,77.99 -247.66,77.99z"/>
  <path class="fil0" d="M5488.52 9084.64l0 77.93c0,131.93 -107.4,239.51 -239.5,239.51 -95.07,0 -180.64,-56.23 -217.85,-143.14l-136.62 58.45c60.86,141.61 199.89,233.22 354.47,233.22 212.56,0 385.34,-172.07 387.63,-384.16l0.41 0 0 -772.21 -148.54 0 0 690.4z"/>
  <polygon class="fil0" points="5873.57,8394.24 5873.57,9540.64 6549.7,9540.64 6549.7,9392.1 6022.11,9392.1 6022.11,9041.74 6427.05,9041.74 6427.05,8893.2 6022.11,8893.2 6022.11,8542.78 6549.7,8542.78 6549.7,8394.24 "/>
  <path class="fil0" d="M14212.37 9000.42l-217.14 0 0 -456.12 217.14 0 0 0c120.9,0 218.9,102.41 218.9,228.53 0,125.47 -98,227.59 -218.9,227.59zm369.14 -227.59c0,-208.98 -165.49,-378.88 -369.14,-378.88l0 -0.18 -367.97 0 0 1155.02 150.83 0 0 -398.01 217.14 0 0 0c8.22,0 15.85,-1.94 24.06,-2.41l186.63 400.42 165.5 0 -206 -442.61c117.96,-63.39 198.95,-188.16 198.95,-333.35z"/>
  <path class="fil0" d="M8085.19 8900.71c-106.51,0 -192.37,-80.87 -192.37,-179.4 0,-99.6 85.86,-180.47 192.37,-180.47 67.03,0 127.18,32.51 162.69,85.86l87.73 -126.24c-63.14,-68.13 -152.82,-107.57 -250.42,-107.57 -187.38,0 -340.32,147.01 -340.32,328.42 0,180.46 152.94,327.35 348.19,327.35 128.17,0 232.75,80.87 232.75,179.41 0,98.65 -104.58,179.58 -232.75,179.58 -105.46,0 -196.31,-54.23 -223.89,-132.28l-92.67 133.16c68.14,89.79 186.39,146.9 316.56,146.9 209.98,0 380.53,-146.9 380.53,-327.36 0,-180.35 -170.55,-327.36 -388.4,-327.36z"/>
  <path class="fil0" d="M12178.86 9407.47c-240.62,0 -436.63,-195.95 -436.63,-436.86 0,-240.74 196.01,-436.69 436.63,-436.69 85.68,0 168.43,25 238.86,72.12l80.99 -120.95c-94.49,-63.27 -204.82,-96.72 -319.85,-96.72 -321.02,0 -582.17,261.22 -582.17,582.24 0,321.19 261.15,582.41 582.17,582.41 119.14,0 233.58,-36.15 331,-104.41l-83.93 -119.13c-72.18,51.06 -157.86,77.99 -247.07,77.99z"/>
  <path class="fil0" d="M7125.9 8900.71c-106.35,0 -192.2,-80.87 -192.2,-179.4 0,-99.6 85.85,-180.47 192.2,-180.47 67.19,0 127.29,32.51 162.85,85.86l87.68 -126.24c-63.15,-68.13 -152.76,-107.57 -250.53,-107.57 -187.28,0 -340.16,147.01 -340.16,328.42 0,180.46 152.88,327.35 348.14,327.35 128.17,0 232.75,80.87 232.75,179.41 0,98.65 -104.58,179.58 -232.75,179.58 -105.47,0 -196.31,-54.23 -223.84,-132.28l-92.66 133.16c67.9,89.79 186.33,146.9 316.5,146.9 210.04,0 380.7,-146.9 380.7,-327.36 0,-180.35 -170.66,-327.36 -388.68,-327.36z"/>
  <polygon class="fil0" points="17969.53,10022.75 18005.91,10022.75 18075.75,9902.68 18038.78,9902.68 "/>
  <line class="fil1" x1="13752.26" y1="10086.43" x2="14208.26" y2= "10086.43" />
  <path class="fil0" d="M5067.91 10431.86l141.32 -318.26 141.44 318.26 -282.76 0zm315.62 0l-157.87 -356.11 -10.09 -21.54 -15.08 0 -8.86 20.19 -157.93 357.46 -13.79 31.63 -74.6 166.67 35.39 0 73.24 -166.67 310.75 0 73.24 166.67 34.04 0 -74.41 -166.67 -14.03 -31.63z"/>
  <path class="fil0" d="M7781.19 10431.86l141.32 -318.26 141.44 318.26 -282.76 0zm315.62 0l-157.86 -356.11 -10.1 -21.54 -15.08 0 -8.86 20.19 -157.87 357.46 -13.91 31.63 -74.53 166.67 35.39 0 73.18 -166.67 310.81 0 73.18 166.67 34.04 0 -74.36 -166.67 -14.03 -31.63z"/>
  <polygon class="fil0" points="6512.61,10054.21 6439.37,10221 6425.4,10252.63 6284.08,10570.77 6142.65,10252.63 6128.63,10221 6055.38,10054.21 6021.34,10054.21 6095.76,10221 6109.78,10252.63 6267.65,10608.74 6277.75,10630.16 6292.83,10630.16 6301.69,10609.92 6459.62,10252.63 6473.47,10221 6548,10054.21 "/>
  <path class="fil0" d="M9030.88 10431.86l141.44 -318.26 141.43 318.26 -282.87 0zm315.74 0l-157.87 -356.11 -9.98 -21.54 -15.25 0 -8.81 20.19 -157.87 357.46 -13.5 31.63 -75.11 166.67 35.79 0 73.36 -166.67 310.46 0 73.36 166.67 34.04 0 -74.54 -166.67 -14.08 -31.63z"/>
  <path class="fil0" d="M15647.86 10431.86l141.44 -318.26 141.43 318.26 -282.87 0zm315.74 0l-157.87 -356.11 -9.98 -21.54 -15.26 0 -8.8 20.19 -157.87 357.46 -13.5 31.63 -74.53 166.67 35.21 0 73.36 -166.67 310.46 0 73.35 166.67 34.04 0 -74.53 -166.67 -14.08 -31.63z"/>
  <path class="fil0" d="M19454.31 10431.86l141.44 -318.26 141.43 318.26 -282.87 0zm329.82 31.63l-14.08 -31.63 -157.87 -356.11 -9.98 -21.54 -15.26 0 -8.8 20.19 -157.87 357.46 -14.08 31.63 -74.54 166.67 35.8 0 72.77 -166.67 311.05 0 73.36 166.67 34.03 0 -74.53 -166.67z"/>
  <polygon class="fil0" points="8790.26,10630.16 8821.74,10630.16 8821.74,10054.23 8790.26,10054.23 "/>
  <polygon class="fil0" points="18699.01,10630.16 18730.64,10630.16 18730.64,10054.23 18699.01,10054.23 "/>
  <polygon class="fil0" points="15406.65,10630.16 15438.13,10630.16 15438.13,10054.23 15406.65,10054.23 "/>
  <polygon class="fil0" points="13433.59,10054.21 13402.49,10054.21 13402.49,10630.16 13417.75,10630.16 13417.75,10630.28 13717.05,10630.28 13717.05,10598.82 13433.59,10598.82 "/>
  <polygon class="fil0" points="17974.22,10630.16 18005.86,10630.16 18005.86,10054.23 17974.22,10054.23 "/>
  <path class="fil0" d="M16724.77 10458.39c0,80.46 -65.14,145.84 -145.55,145.84 -80.4,0 -146.12,-65.38 -146.12,-145.84 0,-8.1 1.17,-16.26 2.34,-24.42l-31.1 -4.22c-1.18,9.51 -2.35,19.01 -2.35,28.64 0,97.77 79.23,177.47 177.23,177.47 97.43,0 177.24,-79.7 177.24,-177.47l0 -404.18 -31.69 0 0 404.18z"/>
  <path class="fil0" d="M11491.05 10596.07c-137.92,0 -248.84,-113.74 -248.84,-253.83 0,-141.43 110.92,-255.17 248.84,-255.17 137.32,0 248.83,113.74 248.83,255.17 0,140.09 -111.51,253.83 -248.83,253.83zm0 -541.86c-155.53,0 -282.87,128.82 -282.87,288.03 0,157.87 127.34,287.92 282.87,287.92 154.93,0 281.69,-130.05 281.69,-287.92 0,-159.21 -126.76,-288.03 -281.69,-288.03z"/>
  <path class="fil0" d="M6820.66 10596.53c-137.21,0 -249.01,-114.2 -249.01,-254.76 0,-140.55 111.8,-254.7 249.01,-254.7 137.39,0 249.19,114.15 249.19,254.7 0,140.56 -111.8,254.76 -249.19,254.76zm0 -542.79c-155.58,0 -282.28,129.29 -282.28,288.03 0,158.81 126.7,288.04 282.28,288.04 155.82,0 282.52,-129.23 282.52,-288.04 0,-158.74 -126.7,-288.03 -282.52,-288.03z"/>
  <path class="fil0" d="M14487.62 10596.07c-137.33,0 -248.84,-113.74 -248.84,-253.83 0,-141.43 111.51,-255.17 248.84,-255.17 137.91,0 248.83,113.74 248.83,255.17 0,140.09 -110.92,253.83 -248.83,253.83zm0 -541.86c-155.53,0 -282.88,128.82 -282.88,288.03 0,157.87 127.35,287.92 282.88,287.92 155.51,0 281.69,-130.05 281.69,-287.92 0,-159.21 -126.18,-288.03 -281.69,-288.03z"/>
  <path class="fil0" d="M19312.88 10481.16c-44.02,71.71 -123.84,116.14 -207.76,116.14 -137.91,0 -250,-114.97 -250,-256.4 0,-140.56 112.09,-255.06 250,-255.06 75.71,0 146.72,34.8 193.67,95.37l26.41 -20.49c-53.41,-68.83 -133.81,-108.15 -220.08,-108.15 -156.69,0 -283.46,129.22 -283.46,288.33 0,159.8 126.77,289.85 283.46,289.85 95.08,0 186.04,-50.65 235.92,-132.1l-28.16 -17.49z"/>
  <path class="fil0" d="M10921.78 10597.47c-137.92,0 -250.01,-114.96 -250.01,-256.28 0,-140.38 112.09,-254.76 250.01,-254.76 75.71,0 146.72,34.68 193.67,95.36l26.41 -20.6c-53.41,-68.72 -133.81,-108.04 -220.08,-108.04 -156.11,0 -283.46,129.29 -283.46,288.04 0,159.69 127.35,289.56 283.46,289.56 95.66,0 186.04,-50.65 235.93,-131.99l-28.18 -17.48c-44.01,71.59 -123.82,116.19 -207.75,116.19z"/>
  <path class="fil0" d="M8468.6 10597.47c-137.86,0 -249.95,-114.96 -249.95,-256.28 0,-140.38 112.09,-254.76 249.95,-254.76 75.94,0 146.6,34.68 193.9,95.36l26.35 -20.6c-53.76,-68.72 -134.1,-108.04 -220.25,-108.04 -156.23,0 -283.4,129.29 -283.4,288.04 0,159.69 127.17,289.56 283.4,289.56 95.48,0 185.92,-50.65 235.92,-131.99l-28.35 -17.48c-43.95,71.59 -123.53,116.19 -207.57,116.19z"/>
  <polygon class="fil0" points="13740.53,10085.55 13953.56,10085.55 13953.56,10630.16 13984.66,10630.16 13984.66,10085.55 14196.52,10085.55 14196.52,10054.09 13740.53,10054.09 "/>
  <polygon class="fil0" points="12228.16,10577.11 11888.95,10054.21 11854.91,10054.21 11854.91,10630.16 11886.01,10630.16 11886.01,10107.26 12224.64,10630.16 12259.85,10630.16 12259.85,10054.21 12228.16,10054.21 "/>
  <path class="fil0" d="M15132.58 10325.69c0,0 0,0 -1.17,0l-238.85 0 0 -239.96 241.79 0c61.62,0 109.74,52.52 109.74,119.72 0,65.96 -48.71,119.31 -109.74,120.36l0 -0.12 -1.77 0zm17.61 27.7c69.84,-9.03 124.42,-70.66 124.42,-147.94 0,-84.34 -61.62,-150.48 -140.26,-150.48l-241.79 0 0 0.59 -31.11 0 0 574.6 31.11 0 0 -273.77 224.18 0 154.94 273.77 34.03 0 -154.34 -274.95 -1.18 -1.82z"/>
  <path class="fil0" d="M17679.61 10325.52c0,0 0,0 -1.18,0l-239.44 0 0 -239.97 241.79 0c61.63,0 110.33,52.58 110.33,119.6 0,66.14 -48.7,119.49 -110.33,120.54l0 -0.17 -1.17 0zm17.6 27.87c69.26,-9.21 124.42,-70.77 124.42,-148.24 0,-84.33 -62.21,-150.35 -140.85,-150.35l-241.79 0 0 0.64 -30.51 0 0 574.72 30.51 0 0 -273.89 224.78 0 154.93 273.89 34.04 0 -154.94 -275.12 -0.59 -1.65z"/>
  <path class="fil0" d="M13227.6 10408.5c-0.59,105.76 -75.12,192.56 -165.5,192.56 -90.96,0 -165.49,-86.8 -165.49,-192.56l0 -354.29 -32.87 0 0 359.1 0.59 0c2.35,122.54 90.37,220.61 197.77,220.61 106.81,0 194.85,-98.07 197.78,-220.61l0.58 0 0 -359.1 -32.86 0 0 354.29z"/>
  <path class="fil0" d="M17230.06 10408.5c-0.58,105.76 -74.52,192.56 -165.49,192.56 -90.38,0 -164.91,-86.8 -165.5,-192.56l0 -354.29 -32.86 0 0 359.1 0.58 0c2.94,122.54 90.97,220.61 197.78,220.61 106.81,0 195.42,-98.07 197.77,-220.61l0.59 0 0 -359.1 -32.87 0 0 354.29z"/>
  <path class="fil0" d="M5780.32 10597.59l-207.11 0 0 -513.22 207.11 0c114.67,0 208.51,115.97 208.51,256.64 0,141.91 -93.84,256.58 -208.51,256.58zm0 -544.44l-239.68 0 0 577.01 239.68 0c10.56,0 19.6,-1.35 29.99,-2.58 54.69,-7.86 102.87,-37.85 140.73,-82.1 42.9,-52.11 70.3,-125.06 70.3,-204.47 0,-158.86 -108.16,-287.86 -241.02,-287.86z"/>
  <path class="fil0" d="M18360.97 10597.59l-205.99 0 0 -511.86 205.99 0c114.44,0 208.34,115.66 208.34,255.93 0,141.61 -93.9,255.93 -208.34,255.93zm0 -543.09l-238.86 0 0 575.66 238.86 0c10.56,0 19.95,-1.35 29.93,-2.58 54.58,-7.86 102.7,-37.68 140.26,-81.99 43.43,-51.93 70.43,-124.7 70.43,-203.93 0,-158.46 -107.99,-287.16 -240.62,-287.16z"/>
  <path class="fil0" d="M12576.17 10310.61c-93.31,0 -174.3,-52.58 -174.3,-112.85 0,-60.39 80.99,-112.97 174.3,-112.97 86.27,0 159.63,43.71 172.54,96.24l31.69 0c-9.97,-71.83 -97.42,-126.94 -204.23,-126.94 -113.85,0 -206.57,64.14 -206.57,143.67 0,79.58 92.72,143.72 206.57,143.72 96.25,0 174.89,56.52 174.89,125.83 0,69.25 -78.64,125.76 -174.89,125.76 -75.12,0 -140.85,-34.8 -163.73,-84.8l-33.45 0c21.71,68.08 102.7,116.91 197.18,116.91 114.44,0 207.17,-70.66 207.17,-157.87 0,-87.39 -92.73,-156.7 -207.17,-156.7z"/>
  <path class="fil0" d="M10086.08 10501.17l-61.63 58.45 -1.76 1.23c-44.01,41.85 -116.78,37.03 -161.97,-10.74 -44.02,-45.3 -46.95,-113.44 -4.7,-158.74l88.03 -86.04 80.4 89.67 0 1.18 61.63 67.96 17.01 19.13 -17.01 17.9zm-210.1 -344.96c0,-40.67 32.27,-72.89 71.6,-72.89 40.49,0 72.76,32.22 72.76,72.89 0,39.32 -32.27,71.54 -72.76,71.54 -39.33,0 -71.6,-32.22 -71.6,-71.54zm392.61 211.21l-21.12 -21.42 -123.25 116.91 -158.45 -178.94 55.75 -54.99c19.37,-17.96 31.1,-44.13 31.1,-72.77 0,-58.63 -46.36,-105.17 -105.04,-105.17 -56.93,0 -103.88,46.54 -103.88,105.17 0,20.3 6.45,39.32 17.02,56.04 2.35,3.58 4.69,7.22 7.04,9.63 4.7,5.87 10.56,11.91 17.02,15.49l39.32 42.96 0 0.17 -56.34 56.35 0 0 -26.41 25.87 -4.7 3.64c-55.16,56.05 -53.4,145.49 2.35,205.29 29.93,31.05 70.43,47.77 109.75,47.77 34.62,0 70.42,-13.08 98.01,-39.49l76.29 -73.95 111.5 124.18 39.33 0 -129.12 -144.49 123.83 -118.25z"/>
  <path class="fil0" d="M7432.13 10597.47c-137.69,0 -249.72,-114.96 -249.72,-256.28 0,-140.38 112.03,-254.76 249.72,-254.76 75.94,0 146.77,34.68 193.9,95.36l26.41 -20.6c-53.82,-68.72 -133.93,-108.04 -220.31,-108.04 -156.05,0 -283.17,129.29 -283.17,288.04 0,159.69 127.12,289.56 283.17,289.56 95.71,0 186.09,-50.65 236.09,-131.99l-28.34 -17.48c-44.13,71.59 -123.66,116.19 -207.75,116.19z"/>
 </g>
</svg>
